HIERARCHY
ROOT joint_Root
{
	OFFSET 0.0 0.0 0.0
	CHANNELS 6 Xposition Yposition Zposition Zrotation Xrotation Yrotation 
	JOINT Hips
	{
		OFFSET 4.5925 91.4895 -427.239
		CHANNELS 6 Xposition Yposition Zposition Zrotation Xrotation Yrotation 
		JOINT Spine
		{
			OFFSET 15.7357 0.0 0.0
			CHANNELS 6 Xposition Yposition Zposition Zrotation Xrotation Yrotation 
			JOINT Chest
			{
				OFFSET 8.98455 -0.406207 0.0
				CHANNELS 6 Xposition Yposition Zposition Zrotation Xrotation Yrotation 
				JOINT Neck
				{
					OFFSET 16.3773 0.0 0.0
					CHANNELS 6 Xposition Yposition Zposition Zrotation Xrotation Yrotation 
					JOINT Head
					{
						OFFSET 6.45672 0.0 0.0
						CHANNELS 6 Xposition Yposition Zposition Zrotation Xrotation Yrotation 
						End Site
						{
							OFFSET 0.0 0.0 0.0
						}
					}
				}
				JOINT Shoulder_L
				{
					OFFSET 12.9942 -0.242716 4.98039
					CHANNELS 6 Xposition Yposition Zposition Zrotation Xrotation Yrotation 
					JOINT UpperArm_L
					{
						OFFSET 5.34809 0.0 0.0
						CHANNELS 6 Xposition Yposition Zposition Zrotation Xrotation Yrotation 
						JOINT LowerArm_L
						{
							OFFSET 24.3286 1.87007e-05 0.0
							CHANNELS 6 Xposition Yposition Zposition Zrotation Xrotation Yrotation 
							JOINT Hand_L
							{
								OFFSET 22.2916 0.0 0.0
								CHANNELS 6 Xposition Yposition Zposition Zrotation Xrotation Yrotation 
								End Site
								{
									OFFSET 0.0 0.0 0.0
								}
							}
						}
					}
				}
				JOINT Shoulder_R
				{
					OFFSET 12.9945 -0.242716 -4.98039
					CHANNELS 6 Xposition Yposition Zposition Zrotation Xrotation Yrotation 
					JOINT UpperArm_R
					{
						OFFSET -5.34813 0.0 0.0
						CHANNELS 6 Xposition Yposition Zposition Zrotation Xrotation Yrotation 
						JOINT LowerArm_R
						{
							OFFSET -24.3289 0.000322201 0.0
							CHANNELS 6 Xposition Yposition Zposition Zrotation Xrotation Yrotation 
							JOINT Hand_R
							{
								OFFSET -22.2915 -0.000108084 0.0
								CHANNELS 6 Xposition Yposition Zposition Zrotation Xrotation Yrotation 
								End Site
								{
									OFFSET 0.0 0.0 0.0
								}
							}
						}
					}
				}
			}
		}
		JOINT UpperLeg_L
		{
			OFFSET -2.19248 -6.46944 0.0
			CHANNELS 6 Xposition Yposition Zposition Zrotation Xrotation Yrotation 
			JOINT LowerLeg_L
			{
				OFFSET 39.0811 0.0 -1.23785e-05
				CHANNELS 6 Xposition Yposition Zposition Zrotation Xrotation Yrotation 
				JOINT Foot_L
				{
					OFFSET 40.9854 0.0 -1.26872e-05
					CHANNELS 6 Xposition Yposition Zposition Zrotation Xrotation Yrotation 
					JOINT Toes_L
					{
						OFFSET 11.7543 0.0 0.0
						CHANNELS 6 Xposition Yposition Zposition Zrotation Xrotation Yrotation 
						End Site
						{
							OFFSET 0.0 0.0 0.0
						}
					}
				}
			}
		}
		JOINT UpperLeg_R
		{
			OFFSET -2.19251 6.46944 0.0
			CHANNELS 6 Xposition Yposition Zposition Zrotation Xrotation Yrotation 
			JOINT LowerLeg_R
			{
				OFFSET -39.0811 -0.00228153 -0.0401928
				CHANNELS 6 Xposition Yposition Zposition Zrotation Xrotation Yrotation 
				JOINT Foot_R
				{
					OFFSET -40.9854 0.0 0.0
					CHANNELS 6 Xposition Yposition Zposition Zrotation Xrotation Yrotation 
					JOINT Toes_R
					{
						OFFSET -11.7543 0.0 0.0
						CHANNELS 6 Xposition Yposition Zposition Zrotation Xrotation Yrotation 
						End Site
						{
							OFFSET 0.0 0.0 0.0
						}
					}
				}
			}
		}
	}
}
MOTION
Frames:	4
Frame Time:	0.0333333
0.000000 0.000000 0.000000 0.000000 0.000000 -0.000000 16.022200 89.411100 -484.394000 97.624100 -8.455180 -12.324500 15.735700 0.000005 -0.000001 115.318000 84.897200 -117.582000 8.984550 -0.406207 -0.000000 1.557090 4.484740 -4.586920 16.377300 -0.000001 -0.000001 -6.589680 -2.244920 1.918520 6.456720 -0.000001 -0.000000 -15.208700 -3.547510 1.040650 12.994200 -0.242716 4.980390 -88.354500 -4.600100 -70.293700 5.348090 -0.000007 -0.000001 -72.948800 39.020500 24.190500 24.328600 0.000019 0.000005 14.895100 -1.940770 -97.256200 22.291600 -0.000001 0.000005 10.886800 5.511770 -7.015640 12.994500 -0.242716 -4.980390 89.656000 2.235850 -81.250500 -5.348130 -0.000001 -0.000004 -64.611200 40.416100 -19.989500 -24.328900 0.000322 -0.000009 -8.698520 3.904740 -113.994000 -22.291500 -0.000108 -0.000004 21.363800 5.623600 -12.853800 -2.192480 -6.469440 -0.000000 176.009000 5.540850 -44.369000 39.081100 -0.000007 -0.000012 -0.089081 0.030627 71.029800 40.985400 -0.000006 -0.000013 11.648200 -10.133900 -65.375600 11.754300 -0.000000 0.000003 -0.006474 -0.075090 -19.633200 -2.192510 6.469440 -0.000001 177.422000 18.753300 177.725000 -39.081100 -0.002282 -0.040193 0.051702 -0.077838 31.875900 -40.985400 0.000008 0.000006 13.579200 11.867400 -62.548200 -11.754300 -0.000006 -0.000006 -0.175870 -0.603435 -42.270000
0.000000 0.000000 0.000000 0.000000 0.000000 -0.000000 15.471000 90.672900 -478.855000 95.361500 -7.793290 -12.081900 15.735700 0.000005 -0.000001 114.763000 84.616600 -116.549000 8.984550 -0.406207 -0.000000 2.091460 4.595240 -3.654080 16.377300 -0.000001 -0.000001 -7.221310 -2.380210 1.735050 6.456720 -0.000001 -0.000000 -16.425000 -3.755000 1.190630 12.994200 -0.242716 4.980390 -88.011200 -5.449250 -69.914000 5.348090 -0.000007 -0.000001 -74.615500 37.815700 24.689700 24.328600 0.000019 0.000005 13.825900 -1.751460 -97.079500 22.291600 -0.000001 0.000005 10.603800 5.502540 -6.634620 12.994500 -0.242716 -4.980390 89.637700 2.302420 -81.054500 -5.348130 -0.000001 -0.000004 -65.760600 40.716100 -16.602900 -24.328900 0.000322 -0.000009 -8.950100 3.827240 -112.969000 -22.291500 -0.000108 -0.000004 20.156600 5.609160 -11.901000 -2.192480 -6.469440 -0.000000 176.597000 3.436280 -41.431900 39.081100 -0.000007 -0.000012 -0.023794 0.014917 57.924600 40.985400 -0.000006 -0.000013 7.479100 -5.707610 -69.898500 11.754300 -0.000000 0.000003 -0.005432 -0.065597 -19.246100 -2.192510 6.469440 -0.000001 177.584000 18.399900 179.503000 -39.081100 -0.002282 -0.040193 0.074496 -0.111933 32.460100 -40.985400 0.000008 0.000006 9.744180 16.636000 -51.752200 -11.754300 -0.000006 -0.000006 -0.144359 -0.543476 -39.523500
0.000000 0.000000 0.000000 0.000000 0.000000 -0.000000 14.854800 90.688600 -473.058000 92.980300 -6.754550 -10.761600 15.735700 0.000005 -0.000001 112.603000 84.199000 -113.706000 8.984550 -0.406207 -0.000000 2.997380 4.500600 -2.323370 16.377300 -0.000001 -0.000001 -7.125630 -2.699490 1.534740 6.456720 -0.000001 -0.000000 -16.872100 -3.840810 0.976494 12.994200 -0.242716 4.980390 -88.107200 -5.262260 -70.184100 5.348090 -0.000007 -0.000001 -74.660000 36.279100 23.237200 24.328600 0.000019 0.000005 15.131700 -1.989400 -97.315000 22.291600 -0.000001 0.000005 10.197300 5.492020 -6.215420 12.994500 -0.242716 -4.980390 89.601100 2.390530 -80.524600 -5.348130 -0.000001 -0.000004 -66.811200 41.155200 -12.449200 -24.328900 0.000322 -0.000009 -9.892660 3.553970 -109.569000 -22.291500 -0.000108 -0.000004 19.891300 5.595510 -11.077500 -2.192480 -6.469440 -0.000000 176.415000 0.270847 -36.910500 39.081100 -0.000007 -0.000012 -0.010038 0.009331 47.100100 40.985400 -0.000006 -0.000013 4.770130 -0.975610 -72.832100 11.754300 -0.000000 0.000003 -0.005053 -0.061985 -19.098800 -2.192510 6.469440 -0.000001 179.614000 12.060200 -179.104000 -39.081100 -0.002282 -0.040193 0.052690 -0.068636 35.744300 -40.985400 0.000008 0.000006 3.049910 14.894300 -43.962800 -11.754300 -0.000006 -0.000006 -0.055596 -0.317182 -29.656600
0.000000 0.000000 0.000000 0.000000 0.000000 -0.000000 14.495800 89.554000 -467.128000 91.266000 -6.275560 -9.582020 15.735700 0.000005 -0.000001 109.625000 83.959600 -110.335000 8.984550 -0.406207 -0.000000 3.646480 4.077720 -1.549050 16.377300 -0.000001 -0.000001 -6.667080 -2.546270 1.482790 6.456720 -0.000001 -0.000000 -16.162400 -3.866530 1.259630 12.994200 -0.242716 4.980390 -88.478400 -4.267880 -70.356700 5.348090 -0.000007 -0.000001 -73.295200 34.385000 19.827900 24.328600 0.000019 0.000005 16.161900 -2.327910 -97.978600 22.291600 -0.000001 0.000005 10.767900 5.487580 -6.040880 12.994500 -0.242716 -4.980390 89.482500 3.027640 -80.297300 -5.348130 -0.000001 -0.000004 -67.393900 41.571600 -8.291130 -24.328900 0.000322 -0.000009 -10.715300 2.788220 -104.417000 -22.291500 -0.000108 -0.000004 20.284300 5.587770 -10.636100 -2.192480 -6.469440 -0.000000 174.940000 -3.830120 -32.874800 39.081100 -0.000007 -0.000012 -0.017205 0.020088 40.582300 40.985400 -0.000006 -0.000013 2.768050 1.553940 -72.762000 11.754300 -0.000000 0.000003 -0.005450 -0.065762 -19.252800 -2.192510 6.469440 -0.000001 -178.887000 7.112770 -179.946000 -39.081100 -0.002282 -0.040193 0.007761 -0.004718 43.595400 -40.985400 0.000008 0.000006 -3.085130 10.123100 -40.085800 -11.754300 -0.000006 -0.000006 -0.024798 -0.192547 -24.450100
